<svg xmlns="http://www.w3.org/2000/svg" width="26" height="29.714" viewBox="0 0 26 29.714">
  <defs>
    <style>
      .cls-1 {
        fill: #103846;
      }
    </style>
  </defs>
  <path id="Icon_awesome-calculator" data-name="Icon awesome-calculator" class="cls-1" d="M23.214,0H2.786A2.856,2.856,0,0,0,0,2.786V26.929a2.856,2.856,0,0,0,2.786,2.786H23.214A2.856,2.856,0,0,0,26,26.929V2.786A2.856,2.856,0,0,0,23.214,0ZM7.429,25.257A.8.8,0,0,1,6.686,26H4.457a.8.8,0,0,1-.743-.743V23.029a.8.8,0,0,1,.743-.743H6.686a.8.8,0,0,1,.743.743Zm0-7.429a.8.8,0,0,1-.743.743H4.457a.8.8,0,0,1-.743-.743V15.6a.8.8,0,0,1,.743-.743H6.686a.8.8,0,0,1,.743.743Zm7.429,7.429a.8.8,0,0,1-.743.743H11.886a.8.8,0,0,1-.743-.743V23.029a.8.8,0,0,1,.743-.743h2.229a.8.8,0,0,1,.743.743Zm0-7.429a.8.8,0,0,1-.743.743H11.886a.8.8,0,0,1-.743-.743V15.6a.8.8,0,0,1,.743-.743h2.229a.8.8,0,0,1,.743.743Zm7.429,7.429a.8.8,0,0,1-.743.743H19.314a.8.8,0,0,1-.743-.743V15.6a.8.8,0,0,1,.743-.743h2.229a.8.8,0,0,1,.743.743v9.657Zm0-14.857a.8.8,0,0,1-.743.743H4.457a.8.8,0,0,1-.743-.743V4.457a.8.8,0,0,1,.743-.743H21.543a.8.8,0,0,1,.743.743Z"/>
</svg>
