<svg xmlns="http://www.w3.org/2000/svg" width="26.5" height="31.5" viewBox="0 0 26.5 31.5">
  <defs>
    <style>
      .cls-1 {
        fill: #103846;
      }
    </style>
  </defs>
  <path id="Icon_awesome-sticky-note" data-name="Icon awesome-sticky-note" class="cls-1" d="M21.938,22.5H31.5V3.938A1.683,1.683,0,0,0,29.813,2.25H6.688A1.683,1.683,0,0,0,5,3.938V32.063A1.683,1.683,0,0,0,6.688,33.75H20.25V24.188A1.692,1.692,0,0,1,21.938,22.5Zm9.07,3.867-6.891,6.891a1.686,1.686,0,0,1-1.2.492H22.5v-9h9v.429A1.682,1.682,0,0,1,31.008,26.367Z" transform="translate(-5 -2.25)"/>
</svg>
