<svg xmlns="http://www.w3.org/2000/svg" width="274.56" height="131.626" viewBox="0 0 274.56 131.626">
  <defs>
    <style>
      .cls-1 {
        fill: #71c9b8;
      }

      .cls-2 {
        fill: #0e3745;
      }
    </style>
  </defs>
  <g id="Gruppe_10" data-name="Gruppe 10" transform="translate(-65.995 -334.005)">
    <path id="Icon_awesome-comment-alt" data-name="Icon awesome-comment-alt" class="cls-1" d="M110.527-110H21.1A21.119,21.119,0,0,0,0-88.9V111.8a21.119,21.119,0,0,0,21.1,21.1h1.418v27.693a3.965,3.965,0,0,0,6.3,3.2l3.521-2.641L69.992,132.9h40.535a21.119,21.119,0,0,0,21.1-21.1V-88.9A21.119,21.119,0,0,0,110.527-110Z" transform="translate(230.555 334.005) rotate(90)"/>
    <path id="Pfad_1" data-name="Pfad 1" class="cls-2" d="M-26.718-20.5V-59.808H-38.31v38.892a11.18,11.18,0,0,1-2.814,8.064,10.028,10.028,0,0,1-7.6,2.94,9.921,9.921,0,0,1-7.518-2.94,11.18,11.18,0,0,1-2.814-8.064V-59.808H-70.734V-20.5a21.265,21.265,0,0,0,1.68,8.568,19.8,19.8,0,0,0,4.7,6.678A20.584,20.584,0,0,0-57.294-.966,24.818,24.818,0,0,0-48.726.5a24.818,24.818,0,0,0,8.568-1.47A20.584,20.584,0,0,0-33.1-5.25a19.8,19.8,0,0,0,4.7-6.678A21.265,21.265,0,0,0-26.718-20.5Zm70.448-9.66q0-5.124-.168-8.358a39.64,39.64,0,0,0-.756-6.048A20.126,20.126,0,0,0,41-49.728,16.716,16.716,0,0,0,37.682-54.1a18.117,18.117,0,0,0-6.93-4.284,26.617,26.617,0,0,0-8.862-1.428H.3V0H21.89a26.617,26.617,0,0,0,8.862-1.428,18.117,18.117,0,0,0,6.93-4.284,17.676,17.676,0,0,0,5-9.156A83.1,83.1,0,0,0,43.73-30.156Zm-11.676,0a88.311,88.311,0,0,1-.462,10.71,10.426,10.426,0,0,1-2.058,5.334q-3.024,3.7-8.736,3.7h-8.82V-49.392H20.8q5.712,0,8.736,3.7a10.213,10.213,0,0,1,2.058,5.166A81.986,81.986,0,0,1,32.054-30.156Zm65.772.252a84.971,84.971,0,0,0-.966-14.91,16.852,16.852,0,0,0-5-8.946,22.239,22.239,0,0,0-7.224-4.914,23.044,23.044,0,0,0-8.9-1.638,23.36,23.36,0,0,0-8.946,1.638,22.11,22.11,0,0,0-7.266,4.914,17.17,17.17,0,0,0-4.872,8.946A82.341,82.341,0,0,0,53.642-29.9,81.6,81.6,0,0,0,54.65-15.036a17.613,17.613,0,0,0,4.872,8.988,22.11,22.11,0,0,0,7.266,4.914A23.36,23.36,0,0,0,75.734.5a23.043,23.043,0,0,0,8.9-1.638,22.239,22.239,0,0,0,7.224-4.914,17.285,17.285,0,0,0,5-9.03A84.318,84.318,0,0,0,97.826-29.9Zm-11.676,0q0,4.368-.126,7.182a32.124,32.124,0,0,1-.462,4.536,12.721,12.721,0,0,1-.882,2.9A8.556,8.556,0,0,1,83.21-13.1a9.4,9.4,0,0,1-7.476,3.192,10.935,10.935,0,0,1-4.326-.84A8.415,8.415,0,0,1,68.174-13.1a7.949,7.949,0,0,1-1.428-2.142,13.419,13.419,0,0,1-.84-2.94,33.852,33.852,0,0,1-.462-4.494q-.126-2.688-.126-7.224t.126-7.266a32.848,32.848,0,0,1,.462-4.494,12.69,12.69,0,0,1,.882-2.94,8.287,8.287,0,0,1,1.386-2.1,8.415,8.415,0,0,1,3.234-2.352,10.935,10.935,0,0,1,4.326-.84A9.4,9.4,0,0,1,83.21-46.7a8.556,8.556,0,0,1,1.47,2.184,12.721,12.721,0,0,1,.882,2.9,31.892,31.892,0,0,1,.462,4.494Q86.15-34.356,86.15-29.9Z" transform="translate(210 431)"/>
    <circle id="Ellipse_13" data-name="Ellipse 13" class="cls-2" cx="6" cy="6" r="6" transform="translate(193 383)"/>
    <circle id="Ellipse_14" data-name="Ellipse 14" class="cls-2" cx="6" cy="6" r="6" transform="translate(193 404)"/>
  </g>
</svg>
